<svg id="svg" version="1.1" xmlns="http://www.w3.org/2000/svg" xmlns:xlink="http://www.w3.org/1999/xlink" width="400" height="400" viewBox="0, 0, 400,400"><g id="svgg"><path id="path0" d="M255.994 44.011 C 255.200 45.494,53.579 246.811,53.398 246.301 C 53.300 246.025,53.160 244.720,53.086 243.400 C 53.012 242.080,52.877 247.120,52.785 254.600 L 52.619 268.200 52.400 257.200 C 52.279 251.150,52.140 274.235,52.090 308.500 C 52.018 358.119,52.102 370.801,52.500 370.806 C 52.899 370.811,52.898 370.877,52.498 371.131 C 51.966 371.469,51.957 373.600,52.487 373.600 C 52.659 373.600,52.800 374.284,52.800 375.120 C 52.800 375.956,53.025 376.882,53.300 377.179 C 53.703 377.612,53.696 377.658,53.267 377.415 C 52.865 377.186,52.885 377.404,53.351 378.305 C 53.690 378.962,53.855 379.611,53.717 379.749 C 53.579 379.887,53.687 380.000,53.957 380.000 C 54.227 380.000,54.359 380.142,54.252 380.316 C 53.908 380.872,55.276 383.200,55.950 383.206 C 56.459 383.211,56.484 383.286,56.066 383.550 C 55.633 383.825,55.646 383.932,56.135 384.120 C 56.467 384.247,56.797 384.767,56.869 385.276 C 56.941 385.784,57.270 386.208,57.600 386.218 C 57.930 386.228,58.155 386.453,58.100 386.718 C 58.045 386.983,58.191 387.200,58.424 387.200 C 58.657 387.200,58.749 387.360,58.628 387.555 C 58.507 387.750,58.717 387.885,59.095 387.855 C 59.472 387.825,59.785 388.010,59.790 388.267 C 59.796 388.523,59.964 388.883,60.164 389.067 C 60.376 389.260,60.408 389.190,60.241 388.900 C 60.058 388.582,60.204 388.400,60.643 388.400 C 61.023 388.400,61.233 388.299,61.109 388.176 C 60.840 387.907,156.857 291.817,157.729 291.483 C 158.114 291.335,158.259 290.946,158.122 290.424 C 157.995 289.937,158.099 289.600,158.377 289.600 C 158.636 289.600,158.737 289.778,158.603 289.995 C 158.468 290.213,158.599 290.298,158.894 290.186 C 159.473 289.963,159.645 288.400,159.091 288.400 C 158.905 288.400,158.866 288.217,159.004 287.993 C 159.142 287.770,159.423 287.691,159.628 287.817 C 159.832 287.944,160.000 287.587,160.000 287.024 C 160.000 286.461,160.191 286.000,160.424 286.000 C 160.657 286.000,160.755 285.851,160.642 285.669 C 160.530 285.486,160.924 284.789,161.519 284.120 C 162.900 282.566,163.010 282.023,161.886 282.304 C 161.011 282.523,161.010 282.515,161.753 281.672 C 162.168 281.203,162.661 280.914,162.849 281.030 C 163.037 281.146,163.076 280.941,162.935 280.575 C 162.730 280.042,162.847 279.961,163.515 280.173 C 164.121 280.365,164.472 280.213,164.790 279.619 C 165.126 278.991,165.108 278.799,164.714 278.794 C 164.328 278.789,164.339 278.700,164.758 278.434 C 165.075 278.234,165.207 277.794,165.063 277.420 C 164.923 277.056,164.972 276.859,165.170 276.982 C 165.369 277.105,165.608 277.069,165.700 276.902 C 165.793 276.736,165.826 276.795,165.773 277.033 C 165.720 277.272,165.914 277.467,166.204 277.467 C 166.535 277.467,166.687 277.081,166.614 276.433 C 166.449 274.987,166.773 274.626,167.471 275.476 C 168.041 276.170,168.056 276.171,167.837 275.479 C 167.712 275.083,167.767 274.856,167.959 274.975 C 168.443 275.274,169.328 274.131,169.011 273.618 C 168.869 273.388,168.943 273.200,169.176 273.200 C 169.409 273.200,169.600 272.918,169.600 272.573 C 169.600 272.116,169.830 272.019,170.450 272.216 C 170.986 272.386,171.207 272.335,171.048 272.077 C 170.909 271.852,171.021 271.563,171.298 271.434 C 171.701 271.246,171.701 271.154,171.298 270.966 C 171.021 270.837,170.909 270.548,171.048 270.323 C 171.208 270.064,171.439 270.113,171.680 270.457 C 171.986 270.894,172.102 270.899,172.269 270.483 C 172.440 270.061,172.594 270.061,173.116 270.483 C 173.591 270.868,173.677 270.873,173.455 270.503 C 173.291 270.230,173.341 269.690,173.566 269.303 C 173.945 268.653,173.980 268.660,174.035 269.400 C 174.076 269.950,174.190 269.825,174.400 269.000 C 174.568 268.340,174.727 268.109,174.753 268.487 C 174.783 268.925,175.018 269.091,175.398 268.946 C 175.726 268.819,175.896 268.555,175.774 268.358 C 175.652 268.161,175.851 268.000,176.215 268.000 C 177.408 268.000,179.215 266.679,178.991 265.970 C 178.876 265.609,179.101 265.063,179.491 264.756 C 180.120 264.263,180.144 264.272,179.703 264.837 C 179.430 265.187,179.325 265.592,179.470 265.737 C 179.899 266.165,181.270 266.036,180.996 265.593 C 180.858 265.370,180.549 265.308,180.311 265.455 C 180.061 265.609,179.991 265.539,180.145 265.289 C 180.292 265.051,180.883 264.940,181.456 265.045 C 182.041 265.151,182.786 264.984,183.150 264.667 C 183.507 264.355,184.115 264.151,184.500 264.214 C 185.104 264.313,185.323 264.030,185.286 263.200 C 185.281 263.090,185.560 262.740,185.905 262.421 C 186.465 261.906,186.508 261.943,186.295 262.758 C 186.072 263.610,186.104 263.630,186.760 263.036 C 187.148 262.685,187.556 262.490,187.668 262.602 C 187.780 262.713,188.215 262.402,188.636 261.909 C 189.224 261.220,189.242 261.136,188.713 261.545 C 183.764 265.372,198.005 250.843,258.287 190.559 C 297.447 151.398,329.699 118.962,329.958 118.478 C 330.217 117.995,330.647 117.603,330.914 117.606 C 331.219 117.610,331.177 117.756,330.800 118.000 C 330.380 118.271,330.354 118.390,330.713 118.394 C 331.504 118.403,331.746 117.288,331.093 116.636 C 330.662 116.205,330.391 116.169,330.061 116.499 C 329.815 116.745,329.481 116.814,329.318 116.652 C 329.156 116.489,329.288 116.172,329.612 115.946 C 330.043 115.645,329.881 115.606,329.001 115.800 C 328.341 115.946,327.935 115.932,328.097 115.769 C 328.260 115.607,328.170 115.197,327.897 114.860 C 327.503 114.374,327.503 114.308,327.895 114.544 C 330.101 115.869,326.668 112.435,324.225 110.872 C 323.518 110.420,323.508 110.379,324.154 110.580 C 325.121 110.883,322.536 107.791,321.500 107.406 C 321.115 107.263,320.797 106.843,320.794 106.473 C 320.789 105.892,320.735 105.882,320.400 106.400 C 320.187 106.730,320.009 106.807,320.006 106.572 C 320.003 106.337,319.460 105.539,318.800 104.800 C 318.140 104.061,317.600 103.298,317.600 103.104 C 317.600 102.911,317.420 102.864,317.200 103.000 C 316.980 103.136,316.800 103.048,316.800 102.805 C 316.800 102.205,314.946 100.388,314.642 100.691 C 314.509 100.824,314.392 100.678,314.381 100.367 C 314.371 100.055,313.660 99.260,312.800 98.600 C 311.940 97.940,311.229 97.175,311.219 96.900 C 311.208 96.625,310.919 96.400,310.576 96.400 C 310.233 96.400,310.064 96.220,310.200 96.000 C 310.336 95.780,310.260 95.600,310.031 95.600 C 309.488 95.600,304.400 90.512,304.400 89.969 C 304.400 89.740,304.220 89.664,304.000 89.800 C 303.780 89.936,303.600 89.767,303.600 89.424 C 303.600 89.081,303.330 88.800,303.000 88.800 C 302.670 88.800,302.400 88.654,302.400 88.477 C 302.400 88.149,298.148 83.700,296.368 82.165 C 295.836 81.706,294.537 80.446,293.482 79.365 C 292.427 78.284,290.762 76.602,289.782 75.628 C 288.802 74.653,288.000 73.708,288.000 73.528 C 288.000 73.347,287.700 73.200,287.333 73.200 C 286.967 73.200,286.765 73.101,286.886 72.981 C 287.141 72.725,283.608 69.200,283.097 69.200 C 282.908 69.200,282.830 69.065,282.924 68.900 C 283.149 68.505,281.352 66.781,281.041 67.093 C 280.908 67.225,280.800 67.159,280.800 66.946 C 280.800 66.733,279.990 65.725,279.000 64.707 C 278.010 63.688,277.200 62.922,277.200 63.003 C 277.200 63.084,275.220 61.145,272.800 58.693 C 270.380 56.240,268.400 54.081,268.400 53.893 C 268.400 53.706,268.229 53.658,268.020 53.788 C 267.811 53.917,267.421 53.612,267.153 53.111 C 266.431 51.759,262.705 48.415,261.913 48.407 C 261.437 48.402,261.304 48.195,261.481 47.734 C 261.652 47.287,261.583 47.164,261.268 47.358 C 261.011 47.517,260.800 47.437,260.800 47.181 C 260.800 46.913,260.521 46.822,260.143 46.966 C 259.591 47.179,259.568 47.121,260.000 46.600 C 260.426 46.086,260.413 46.020,259.921 46.209 C 259.595 46.334,259.097 46.158,258.815 45.818 C 258.533 45.478,258.436 45.200,258.600 45.200 C 258.764 45.200,258.674 44.930,258.400 44.600 C 258.126 44.270,257.553 44.000,257.127 44.000 C 256.701 44.000,256.464 43.820,256.600 43.600 C 256.736 43.380,256.753 43.200,256.638 43.200 C 256.522 43.200,256.233 43.565,255.994 44.011 M332.675 119.180 C 333.042 119.608,333.501 119.861,333.695 119.741 C 333.889 119.621,333.722 119.276,333.324 118.974 C 332.263 118.170,331.907 118.282,332.675 119.180 M184.498 263.092 C 184.221 263.189,184.114 263.461,184.259 263.696 C 184.410 263.939,184.336 264.008,184.089 263.855 C 183.851 263.708,183.530 263.789,183.378 264.036 C 183.179 264.357,183.007 264.335,182.776 263.962 C 182.309 263.205,182.633 262.899,183.893 262.908 C 184.502 262.912,184.774 262.995,184.498 263.092 M161.315 283.878 C 161.200 284.177,160.722 284.607,160.253 284.833 C 159.522 285.186,159.491 285.170,160.035 284.722 C 160.384 284.435,160.604 284.005,160.524 283.767 C 160.444 283.528,160.636 283.333,160.951 283.333 C 161.270 283.333,161.431 283.575,161.315 283.878 M157.569 293.100 C 157.553 293.265,157.478 293.715,157.405 294.100 C 157.331 294.485,157.435 294.800,157.635 294.800 C 157.836 294.800,158.000 294.350,158.000 293.800 C 158.000 292.911,157.647 292.337,157.569 293.100 " stroke="none" fill="#4da1ec" fill-rule="evenodd"></path><path id="path1" d="M391.300 177.863 C 391.025 177.975,390.800 178.322,390.800 178.633 C 390.800 178.945,390.640 179.155,390.443 179.100 C 389.960 178.964,350.021 218.869,350.009 219.500 C 350.003 219.863,351.124 220.022,354.100 220.082 L 358.200 220.163 353.000 220.413 C 350.140 220.550,355.502 220.649,364.915 220.631 C 375.832 220.611,382.133 220.455,382.315 220.200 C 382.472 219.980,382.780 219.790,383.000 219.778 C 383.846 219.730,385.824 219.070,386.339 218.663 C 386.635 218.429,387.258 218.179,387.722 218.109 C 388.186 218.038,388.663 217.840,388.783 217.669 C 388.902 217.498,389.720 216.834,390.600 216.194 C 392.470 214.835,395.604 211.738,395.359 211.492 C 395.050 211.183,397.487 208.420,397.810 208.713 C 397.985 208.871,398.013 208.798,397.872 208.552 C 397.732 208.305,398.077 207.225,398.639 206.152 C 400.262 203.054,400.558 189.816,399.039 188.296 C 398.762 188.019,398.605 187.586,398.689 187.333 C 398.773 187.080,398.653 186.756,398.421 186.613 C 398.190 186.470,398.000 185.924,398.000 185.400 C 398.000 184.876,397.792 184.319,397.538 184.162 C 397.233 183.973,397.186 184.054,397.400 184.400 C 397.614 184.746,397.567 184.827,397.262 184.638 C 397.008 184.481,396.800 184.083,396.800 183.753 C 396.800 183.423,396.639 183.252,396.443 183.374 C 396.246 183.495,395.983 183.188,395.859 182.691 C 395.548 181.455,391.919 177.611,391.300 177.863 M394.585 181.948 C 394.345 182.189,393.200 180.897,393.200 180.384 C 393.200 180.124,393.545 180.336,393.966 180.856 C 394.387 181.375,394.665 181.866,394.585 181.948 M295.497 273.554 L 244.400 324.662 244.400 327.841 C 244.400 329.590,244.233 332.456,244.028 334.210 C 243.594 337.932,243.028 395.906,243.429 395.504 C 243.578 395.355,243.705 393.291,243.712 390.917 L 243.723 386.600 243.988 389.800 C 244.196 392.303,244.287 391.170,244.406 384.600 C 244.542 377.169,244.585 376.719,244.780 380.701 L 245.000 385.202 295.405 334.800 C 323.127 307.079,346.052 284.008,346.349 283.533 C 346.998 282.493,347.584 224.216,346.957 223.095 C 346.664 222.572,336.746 232.297,295.497 273.554 " stroke="none" fill="#2c84dc" fill-rule="evenodd"></path><path id="path2" d="M324.313 110.935 C 324.814 111.214,325.084 111.582,324.913 111.754 C 324.741 111.926,324.870 112.007,325.200 111.933 C 325.571 111.851,325.759 112.050,325.693 112.454 C 325.589 113.089,326.702 113.832,327.124 113.409 C 327.239 113.294,327.129 113.200,326.879 113.200 C 326.629 113.200,326.510 112.975,326.613 112.700 C 326.795 112.214,324.526 110.386,323.775 110.414 C 323.569 110.422,323.811 110.656,324.313 110.935 M327.817 114.372 C 327.691 114.577,327.773 114.860,328.000 115.000 C 328.227 115.140,328.291 115.453,328.141 115.696 C 327.963 115.983,328.111 116.043,328.567 115.868 C 328.951 115.721,329.458 115.600,329.694 115.600 C 329.930 115.600,329.707 115.240,329.200 114.800 C 328.139 113.880,328.124 113.875,327.817 114.372 M329.958 118.478 C 329.699 118.962,297.447 151.398,258.287 190.559 C 198.005 250.843,183.764 265.372,188.713 261.545 C 189.245 261.134,189.228 261.216,188.638 261.907 C 187.878 262.797,187.879 262.800,188.914 262.800 C 189.486 262.800,190.064 262.620,190.200 262.400 C 190.336 262.180,191.247 262.000,192.224 262.000 C 193.536 262.000,194.000 261.843,194.000 261.400 C 194.000 261.070,194.191 260.800,194.424 260.800 C 194.657 260.800,194.719 261.008,194.562 261.262 C 194.376 261.563,194.453 261.614,194.784 261.410 C 195.448 261.000,205.194 261.108,205.763 261.532 C 206.003 261.712,206.827 261.896,207.593 261.943 C 208.360 261.989,209.161 262.201,209.373 262.413 C 209.586 262.626,210.266 262.800,210.885 262.800 C 211.504 262.800,212.368 262.980,212.805 263.200 C 213.242 263.420,213.958 263.780,214.395 264.000 C 214.832 264.220,215.552 264.400,215.995 264.400 C 216.438 264.400,216.800 264.558,216.800 264.750 C 216.800 264.943,217.318 265.204,217.952 265.330 C 218.585 265.457,219.382 265.840,219.723 266.180 C 220.064 266.521,220.592 266.800,220.896 266.800 C 221.200 266.800,221.836 267.160,222.308 267.600 C 222.780 268.040,223.354 268.400,223.583 268.400 C 223.812 268.400,224.000 268.580,224.000 268.800 C 224.000 269.020,224.270 269.200,224.600 269.200 C 224.930 269.200,225.200 269.380,225.200 269.600 C 225.200 269.820,225.412 270.000,225.672 270.000 C 225.931 270.000,226.711 270.585,227.405 271.300 C 228.100 272.015,229.507 273.359,230.534 274.286 C 231.560 275.213,232.400 276.085,232.400 276.225 C 232.400 276.365,232.940 276.983,233.600 277.600 C 234.260 278.217,234.800 278.969,234.800 279.272 C 234.800 279.575,235.160 280.083,235.600 280.400 C 236.040 280.717,236.400 281.111,236.400 281.274 C 236.400 281.438,236.940 282.424,237.600 283.464 C 238.260 284.505,238.800 285.681,238.800 286.078 C 238.800 286.475,238.980 286.800,239.200 286.800 C 239.420 286.800,239.600 287.171,239.600 287.624 C 239.600 288.077,239.780 288.336,240.000 288.200 C 240.233 288.056,240.400 288.463,240.400 289.176 C 240.400 289.849,240.580 290.400,240.800 290.400 C 241.020 290.400,241.200 290.929,241.200 291.576 C 241.200 292.223,241.380 292.864,241.600 293.000 C 241.820 293.136,242.000 293.766,242.000 294.400 C 242.000 295.034,242.163 295.653,242.362 295.776 C 242.560 295.899,242.749 296.855,242.780 297.900 C 242.811 298.945,242.901 300.700,242.981 301.800 C 243.061 302.900,243.180 318.920,243.245 337.400 L 243.365 371.000 243.660 352.200 C 243.823 341.860,244.101 331.387,244.278 328.927 L 244.600 324.454 295.594 273.455 C 329.798 239.247,346.697 222.612,346.920 222.928 C 347.113 223.203,347.194 222.798,347.113 221.958 L 346.974 220.516 352.380 220.432 C 355.352 220.386,357.863 220.270,357.959 220.174 C 358.055 220.078,356.303 220.000,354.067 220.000 C 351.075 220.000,350.002 219.868,350.009 219.500 C 350.021 218.869,389.960 178.964,390.443 179.100 C 390.640 179.155,390.800 178.930,390.800 178.600 C 390.800 178.270,390.980 178.000,391.200 178.000 C 392.050 178.000,391.451 176.935,389.764 175.450 C 388.227 174.096,387.914 173.966,387.302 174.428 C 386.652 174.917,386.647 174.904,387.237 174.255 C 387.876 173.553,385.883 170.800,384.736 170.800 C 384.525 170.800,384.464 170.620,384.600 170.400 C 384.736 170.180,384.556 170.000,384.200 170.000 C 383.844 170.000,383.664 169.820,383.800 169.600 C 384.022 169.240,383.497 169.027,382.700 169.153 C 382.535 169.179,382.445 168.975,382.500 168.700 C 382.555 168.425,382.375 168.245,382.100 168.300 C 381.825 168.355,381.645 168.175,381.700 167.900 C 381.755 167.625,381.575 167.445,381.300 167.500 C 381.025 167.555,380.821 167.465,380.847 167.300 C 380.973 166.503,380.760 165.978,380.400 166.200 C 380.180 166.336,380.000 166.156,380.000 165.800 C 380.000 165.444,379.820 165.264,379.600 165.400 C 379.380 165.536,379.199 165.412,379.199 165.124 C 379.198 164.836,378.659 164.240,378.000 163.800 C 377.341 163.360,376.802 162.764,376.801 162.476 C 376.801 162.188,376.665 162.027,376.500 162.117 C 376.335 162.207,375.480 161.421,374.600 160.369 C 373.720 159.318,372.775 158.445,372.500 158.429 C 372.225 158.413,372.000 158.243,372.000 158.051 C 372.000 157.718,365.450 151.049,359.142 144.959 C 357.524 143.397,354.909 140.787,353.332 139.159 C 351.755 137.532,349.730 135.493,348.832 134.630 C 347.934 133.766,347.200 132.911,347.200 132.730 C 347.200 132.548,346.919 132.400,346.576 132.400 C 346.233 132.400,346.035 132.265,346.134 132.100 C 346.234 131.935,346.065 131.568,345.758 131.284 C 345.451 131.001,345.200 130.857,345.200 130.966 C 345.200 131.075,344.750 130.714,344.200 130.164 C 343.650 129.614,343.200 128.973,343.200 128.739 C 343.200 128.505,342.921 128.422,342.579 128.553 C 342.223 128.689,342.063 128.622,342.203 128.395 C 342.337 128.178,342.257 128.000,342.024 128.000 C 341.791 128.000,341.600 127.700,341.600 127.333 C 341.600 126.967,341.485 126.782,341.344 126.923 C 341.203 127.063,340.469 126.508,339.712 125.689 C 338.955 124.870,338.176 124.243,337.982 124.295 C 337.788 124.348,337.732 124.123,337.857 123.795 C 338.000 123.423,337.849 123.200,337.452 123.200 C 337.104 123.200,336.502 122.705,336.114 122.100 C 335.141 120.579,334.539 119.994,334.248 120.286 C 334.111 120.422,334.000 120.313,334.000 120.043 C 334.000 119.773,333.852 119.644,333.671 119.756 C 333.382 119.935,331.710 118.355,331.918 118.100 C 332.248 117.697,331.900 117.540,331.520 117.920 C 331.256 118.184,330.851 118.397,330.620 118.394 C 330.389 118.391,330.470 118.213,330.800 118.000 C 331.177 117.756,331.219 117.610,330.914 117.606 C 330.647 117.603,330.217 117.995,329.958 118.478 M393.200 180.384 C 393.200 180.897,394.345 182.189,394.585 181.948 C 394.665 181.866,394.387 181.375,393.966 180.856 C 393.545 180.336,393.200 180.124,393.200 180.384 M185.684 262.639 C 185.401 262.948,185.221 263.214,185.284 263.231 C 186.329 263.507,186.854 263.410,187.283 262.862 C 187.739 262.278,187.722 262.261,187.133 262.721 C 186.579 263.155,186.444 263.144,186.333 262.661 C 186.219 262.162,186.126 262.159,185.684 262.639 M182.619 263.169 C 182.528 263.317,182.576 263.610,182.726 263.819 C 183.072 264.301,184.859 264.419,184.563 263.941 C 184.443 263.746,184.132 263.693,183.872 263.823 C 183.613 263.953,183.719 263.798,184.108 263.480 C 184.768 262.940,184.747 262.900,183.801 262.900 C 183.242 262.900,182.711 263.021,182.619 263.169 M179.217 264.979 C 178.898 265.364,178.863 265.783,179.113 266.230 C 179.350 266.653,179.587 266.745,179.751 266.479 C 179.895 266.246,179.821 265.937,179.587 265.792 C 179.291 265.609,179.304 265.357,179.630 264.964 C 179.887 264.654,180.008 264.400,179.898 264.400 C 179.788 264.400,179.482 264.661,179.217 264.979 M173.434 269.506 C 173.274 270.004,172.991 270.318,172.805 270.203 C 172.620 270.089,172.363 270.221,172.234 270.498 C 172.046 270.901,171.954 270.901,171.766 270.498 C 171.637 270.221,171.348 270.109,171.123 270.248 C 170.865 270.407,170.914 270.629,171.257 270.850 C 171.707 271.140,171.697 271.267,171.200 271.594 C 170.766 271.879,170.744 271.989,171.122 271.994 C 171.930 272.003,174.124 269.770,173.913 269.152 C 173.789 268.787,173.627 268.907,173.434 269.506 M169.600 272.600 C 169.600 272.930,169.409 273.200,169.176 273.200 C 168.943 273.200,168.881 273.407,169.037 273.661 C 169.238 273.985,169.465 273.926,169.805 273.461 C 170.071 273.097,170.538 272.797,170.844 272.794 C 171.289 272.789,171.280 272.710,170.800 272.400 C 169.949 271.850,169.600 271.909,169.600 272.600 M166.776 274.800 C 166.757 274.910,166.665 275.405,166.573 275.900 C 166.481 276.395,166.565 276.800,166.760 276.800 C 167.312 276.800,167.565 275.789,167.169 275.164 C 166.973 274.854,166.796 274.690,166.776 274.800 M165.606 276.724 C 165.603 277.012,165.422 277.137,165.205 277.003 C 164.973 276.859,164.914 277.032,165.063 277.420 C 165.207 277.794,165.075 278.234,164.758 278.434 C 164.451 278.629,164.397 278.791,164.638 278.794 C 165.457 278.805,166.386 277.424,165.986 276.791 C 165.711 276.357,165.611 276.339,165.606 276.724 M162.953 280.621 C 163.084 280.962,163.037 281.146,162.849 281.030 C 162.661 280.914,162.206 281.152,161.837 281.559 C 161.207 282.255,161.218 282.311,162.024 282.522 C 162.494 282.645,162.786 282.653,162.673 282.540 C 162.559 282.426,162.818 281.982,163.248 281.552 C 164.016 280.784,163.958 280.000,163.134 280.000 C 162.903 280.000,162.822 280.279,162.953 280.621 M160.512 283.732 C 160.599 283.989,160.384 284.425,160.035 284.701 C 159.458 285.156,159.458 285.182,160.033 284.984 C 160.432 284.847,160.667 284.995,160.667 285.383 C 160.667 285.722,160.517 286.000,160.333 286.000 C 160.150 286.000,160.018 286.495,160.040 287.100 C 160.082 288.264,160.149 288.164,160.987 285.700 C 161.156 285.205,161.466 284.800,161.676 284.800 C 162.369 284.800,161.816 283.478,161.077 283.370 C 160.670 283.310,160.423 283.468,160.512 283.732 M158.122 290.424 C 158.259 290.946,158.114 291.335,157.729 291.483 C 156.857 291.817,60.840 387.907,61.109 388.176 C 61.624 388.690,60.291 388.347,59.332 387.718 C 58.303 387.045,58.297 387.047,58.826 387.893 C 59.120 388.363,59.505 388.658,59.683 388.549 C 59.860 388.439,60.113 388.630,60.245 388.972 C 60.376 389.315,60.625 389.508,60.797 389.402 C 60.969 389.296,61.335 389.481,61.611 389.814 C 62.034 390.323,61.999 390.375,61.391 390.141 C 60.871 389.942,60.756 390.005,60.980 390.367 C 61.150 390.643,61.644 390.777,62.077 390.664 C 62.652 390.514,62.802 390.617,62.636 391.050 C 62.508 391.385,62.582 391.535,62.807 391.395 C 63.026 391.260,63.306 391.412,63.430 391.733 C 63.564 392.084,64.104 392.285,64.784 392.238 C 65.628 392.180,65.857 392.308,65.689 392.744 C 65.522 393.181,65.684 393.271,66.333 393.102 C 66.810 392.977,67.100 393.038,66.977 393.237 C 66.854 393.437,66.898 393.614,67.076 393.631 C 68.151 393.732,68.951 393.994,69.160 394.311 C 69.292 394.512,70.119 394.700,70.997 394.729 C 71.876 394.759,72.655 394.964,72.728 395.184 C 72.992 395.977,156.263 395.733,156.568 394.939 C 156.709 394.572,156.821 373.015,156.817 347.036 C 156.812 321.056,156.963 299.035,157.151 298.100 C 157.339 297.165,157.342 296.400,157.159 296.400 C 156.975 296.400,156.928 296.131,157.054 295.802 C 157.181 295.474,157.445 295.304,157.642 295.426 C 157.839 295.548,158.000 295.457,158.000 295.224 C 158.000 294.991,157.836 294.800,157.635 294.800 C 157.243 294.800,157.273 294.324,157.753 292.894 C 157.921 292.396,158.231 292.096,158.444 292.227 C 158.670 292.367,158.790 291.873,158.733 291.033 C 158.680 290.245,158.472 289.600,158.272 289.600 C 158.071 289.600,158.004 289.971,158.122 290.424 " stroke="none" fill="#328cde" fill-rule="evenodd"></path><path id="path3" d="M346.899 275.705 C 346.832 280.505,346.639 283.068,346.305 283.604 C 346.032 284.041,323.127 307.079,295.405 334.800 L 245.000 385.202 244.780 380.701 C 244.585 376.719,244.542 377.169,244.406 384.600 C 244.287 391.146,244.195 392.294,243.990 389.800 C 243.728 386.621,243.726 386.630,243.710 391.100 L 243.693 395.600 285.423 395.600 C 312.811 395.600,327.238 395.463,327.400 395.200 C 327.536 394.980,328.231 394.800,328.944 394.800 C 329.657 394.800,330.482 394.575,330.779 394.300 C 331.216 393.894,331.258 393.912,331.000 394.400 C 330.742 394.888,330.784 394.906,331.221 394.500 C 331.518 394.225,332.084 394.000,332.480 394.000 C 332.876 394.000,333.200 393.820,333.200 393.600 C 333.200 393.380,333.560 393.200,334.000 393.200 C 334.440 393.200,334.800 393.020,334.800 392.800 C 334.800 392.580,335.160 392.400,335.600 392.400 C 336.040 392.400,336.400 392.259,336.400 392.086 C 336.400 391.914,336.895 391.477,337.500 391.116 C 339.067 390.182,342.400 386.992,342.400 386.428 C 342.400 386.167,342.580 386.064,342.800 386.200 C 343.020 386.336,343.200 386.077,343.200 385.624 C 343.200 385.171,343.380 384.800,343.600 384.800 C 343.820 384.800,344.000 384.519,344.000 384.176 C 344.000 383.833,344.184 383.667,344.410 383.806 C 344.635 383.945,344.794 383.911,344.763 383.730 C 344.605 382.822,344.845 381.981,345.200 382.200 C 345.433 382.344,345.600 381.937,345.600 381.224 C 345.600 380.551,345.780 380.000,346.000 380.000 C 346.220 380.000,346.400 379.406,346.400 378.680 C 346.400 377.954,346.581 377.179,346.801 376.959 C 347.067 376.693,347.168 358.298,347.100 322.579 C 347.043 292.890,346.953 271.797,346.899 275.705 " stroke="none" fill="#217ed6" fill-rule="evenodd"></path><path id="path4" d="M194.400 4.745 C 194.400 4.953,193.545 5.221,192.500 5.340 C 189.301 5.706,187.603 6.072,187.373 6.444 C 187.252 6.640,186.623 6.800,185.976 6.800 C 185.329 6.800,184.800 6.980,184.800 7.200 C 184.800 7.420,184.260 7.600,183.600 7.600 C 182.940 7.600,182.400 7.758,182.400 7.950 C 182.400 8.143,181.882 8.404,181.248 8.530 C 180.615 8.657,179.805 9.052,179.448 9.409 C 179.092 9.765,178.800 9.942,178.800 9.801 C 178.800 9.661,178.277 9.918,177.638 10.373 C 176.999 10.828,176.323 11.200,176.134 11.200 C 175.946 11.200,175.568 11.560,175.293 12.000 C 175.018 12.440,174.484 12.800,174.107 12.800 C 173.260 12.800,3.785 182.167,3.098 183.700 C 2.827 184.305,2.469 184.800,2.302 184.800 C 2.136 184.800,2.000 185.160,2.000 185.600 C 2.000 186.040,1.820 186.400,1.600 186.400 C 1.380 186.400,1.200 186.745,1.200 187.167 C 1.200 187.588,0.978 188.007,0.706 188.098 C -0.150 188.383,-0.256 202.283,0.578 204.904 C 1.478 207.734,2.263 209.389,2.993 209.994 C 3.327 210.271,3.600 210.749,3.600 211.055 C 3.600 211.760,9.595 217.792,9.614 217.106 C 9.622 216.828,9.847 216.960,10.114 217.400 C 10.381 217.840,10.870 218.259,11.200 218.330 C 11.530 218.402,11.860 218.627,11.933 218.830 C 12.007 219.034,12.412 219.200,12.833 219.200 C 13.255 219.200,13.600 219.388,13.600 219.618 C 13.600 219.847,13.825 220.006,14.100 219.970 C 15.207 219.826,16.034 220.021,15.816 220.373 C 15.689 220.579,16.103 220.732,16.735 220.714 C 17.367 220.696,18.136 220.843,18.442 221.041 C 19.159 221.502,19.445 221.510,37.100 221.559 L 52.000 221.600 52.053 232.500 C 52.082 238.495,52.228 248.980,52.378 255.800 L 52.650 268.200 52.801 254.600 C 52.883 247.120,53.012 242.080,53.086 243.400 C 53.160 244.720,53.300 246.025,53.398 246.301 C 53.556 246.747,255.045 45.630,256.315 43.759 C 256.598 43.341,256.722 43.225,256.591 43.500 C 256.440 43.818,256.662 44.000,257.200 44.000 C 257.677 44.000,257.936 44.179,257.794 44.410 C 257.655 44.635,257.771 44.770,258.052 44.710 C 258.333 44.649,258.572 44.840,258.582 45.132 C 258.592 45.425,258.912 45.893,259.294 46.172 C 259.675 46.451,259.855 46.825,259.694 47.004 C 259.532 47.182,259.645 47.186,259.945 47.013 C 260.271 46.824,260.629 46.918,260.839 47.249 C 261.115 47.685,261.189 47.654,261.194 47.100 C 261.197 46.715,260.919 46.400,260.576 46.400 C 260.202 46.400,260.068 46.213,260.242 45.932 C 260.435 45.619,260.315 45.547,259.878 45.715 C 259.519 45.852,259.119 45.793,258.989 45.583 C 258.859 45.372,258.938 45.200,259.164 45.200 C 259.390 45.200,258.913 44.480,258.104 43.600 C 256.487 41.842,256.016 41.643,255.968 42.700 C 255.943 43.258,255.890 43.278,255.708 42.800 C 255.583 42.470,255.282 42.048,255.040 41.862 C 254.772 41.656,254.873 41.612,255.300 41.750 C 256.158 42.026,256.194 41.737,255.400 40.943 C 255.041 40.584,254.800 40.524,254.800 40.795 C 254.800 41.044,254.628 41.141,254.417 41.011 C 254.207 40.881,254.148 40.481,254.285 40.122 C 254.453 39.685,254.381 39.565,254.068 39.758 C 253.787 39.932,253.600 39.798,253.600 39.424 C 253.600 39.081,253.319 38.800,252.976 38.800 C 252.633 38.800,252.456 38.633,252.582 38.429 C 252.708 38.225,252.449 37.943,252.006 37.802 C 251.563 37.661,251.200 37.278,251.200 36.949 C 251.200 36.621,251.020 36.464,250.800 36.600 C 250.580 36.736,250.400 36.567,250.400 36.224 C 250.400 35.881,250.214 35.600,249.987 35.600 C 249.515 35.600,246.774 32.960,247.005 32.729 C 247.088 32.645,246.627 32.222,245.979 31.789 C 245.332 31.355,244.802 30.775,244.801 30.500 C 244.801 30.225,244.500 30.000,244.133 30.000 C 243.767 30.000,243.586 29.881,243.731 29.736 C 243.876 29.590,243.612 29.275,243.143 29.036 C 242.673 28.796,242.325 28.454,242.368 28.276 C 242.479 27.823,239.396 24.800,238.823 24.800 C 238.565 24.800,238.464 24.620,238.600 24.400 C 238.736 24.180,238.587 24.000,238.270 24.000 C 237.952 24.000,237.426 23.595,237.100 23.100 C 236.324 21.919,228.056 13.600,227.658 13.600 C 227.489 13.600,226.957 13.233,226.475 12.784 C 225.994 12.336,225.600 12.057,225.600 12.165 C 225.600 12.273,225.124 11.920,224.542 11.381 C 223.959 10.841,223.169 10.400,222.784 10.400 C 222.400 10.400,221.982 10.130,221.855 9.800 C 221.729 9.470,221.347 9.200,221.007 9.200 C 220.667 9.200,219.987 8.992,219.495 8.738 C 217.565 7.740,217.182 7.600,216.382 7.600 C 215.918 7.600,215.664 7.420,215.806 7.190 C 215.945 6.965,215.911 6.806,215.730 6.837 C 214.669 7.022,213.188 6.743,213.400 6.400 C 213.551 6.155,212.930 6.000,211.800 6.000 C 210.670 6.000,210.049 5.845,210.200 5.600 C 210.352 5.354,209.679 5.200,208.447 5.200 C 207.347 5.200,206.347 5.037,206.224 4.839 C 205.921 4.349,194.400 4.258,194.400 4.745 M272.800 58.567 C 272.800 58.988,274.005 60.128,274.221 59.912 C 274.322 59.811,274.044 59.402,273.602 59.002 C 273.161 58.603,272.800 58.407,272.800 58.567 M290.000 75.767 C 290.000 76.188,291.205 77.328,291.421 77.112 C 291.522 77.011,291.244 76.602,290.802 76.202 C 290.361 75.803,290.000 75.607,290.000 75.767 M306.400 92.167 C 306.400 92.588,307.605 93.728,307.821 93.512 C 307.922 93.411,307.644 93.002,307.202 92.602 C 306.761 92.203,306.400 92.007,306.400 92.167 " stroke="none" fill="#5cacf4" fill-rule="evenodd"></path></g></svg>